<svg width="56" height="72" viewBox="0 0 56 72" fill="none" xmlns="http://www.w3.org/2000/svg">
<g filter="url(#filter0_d_28_2843)">
<mask id="path-1-inside-1_28_2843" fill="white">
<path fill-rule="evenodd" clip-rule="evenodd" d="M8 4C5.79086 4 4 5.79086 4 8V48C4 50.2091 5.79086 52 8 52H22.0002L28.0002 68L34.0002 52H48C50.2091 52 52 50.2091 52 48V8C52 5.79086 50.2091 4 48 4H8Z"/>
</mask>
<path fill-rule="evenodd" clip-rule="evenodd" d="M8 4C5.79086 4 4 5.79086 4 8V48C4 50.2091 5.79086 52 8 52H22.0002L28.0002 68L34.0002 52H48C50.2091 52 52 50.2091 52 48V8C52 5.79086 50.2091 4 48 4H8Z" fill="#0F172A"/>
<path d="M22.0002 52L22.9366 51.6489L22.6932 51H22.0002V52ZM28.0002 68L27.0639 68.3511L28.0002 70.848L28.9366 68.3511L28.0002 68ZM34.0002 52V51H33.3072L33.0639 51.6489L34.0002 52ZM5 8C5 6.34315 6.34315 5 8 5V3C5.23858 3 3 5.23857 3 8H5ZM5 48V8H3V48H5ZM8 51C6.34315 51 5 49.6569 5 48H3C3 50.7614 5.23857 53 8 53V51ZM22.0002 51H8V53H22.0002V51ZM28.9366 67.6489L22.9366 51.6489L21.0639 52.3511L27.0639 68.3511L28.9366 67.6489ZM33.0639 51.6489L27.0639 67.6489L28.9366 68.3511L34.9366 52.3511L33.0639 51.6489ZM48 51H34.0002V53H48V51ZM51 48C51 49.6569 49.6569 51 48 51V53C50.7614 53 53 50.7614 53 48H51ZM51 8V48H53V8H51ZM48 5C49.6569 5 51 6.34315 51 8H53C53 5.23858 50.7614 3 48 3V5ZM8 5H48V3H8V5Z" fill="#334155" mask="url(#path-1-inside-1_28_2843)"/>
<path d="M27.9982 31.6848L16 16V40H20.9972V30.8469L27.9982 40L35.0012 30.8469L39.9985 24.3162V16L27.9982 31.6848Z" fill="white"/>
<path d="M33.9487 40H40.0005V31.869L33.9487 40Z" fill="#FF6600"/>
</g>
<defs>
<filter id="filter0_d_28_2843" x="0" y="0" width="56" height="72" filterUnits="userSpaceOnUse" color-interpolation-filters="sRGB">
<feFlood flood-opacity="0" result="BackgroundImageFix"/>
<feColorMatrix in="SourceAlpha" type="matrix" values="0 0 0 0 0 0 0 0 0 0 0 0 0 0 0 0 0 0 127 0" result="hardAlpha"/>
<feOffset/>
<feGaussianBlur stdDeviation="2"/>
<feColorMatrix type="matrix" values="0 0 0 0 0 0 0 0 0 0 0 0 0 0 0 0 0 0 0.25 0"/>
<feBlend mode="normal" in2="BackgroundImageFix" result="effect1_dropShadow_28_2843"/>
<feBlend mode="normal" in="SourceGraphic" in2="effect1_dropShadow_28_2843" result="shape"/>
</filter>
</defs>
</svg>
