<svg width="24" height="18" viewBox="0 0 24 18" fill="none" xmlns="http://www.w3.org/2000/svg">
   <g filter="url(#filter0_i_8018_52576)">
      <rect width="24" height="18" fill="#333333"/>
      <path fill-rule="evenodd" clip-rule="evenodd" d="M12 15C15.3137 15 18 12.3137 18 9C18 5.68629 15.3137 3 12 3C8.68629 3 6 5.68629 6 9C6 12.3137 8.68629 15 12 15ZM12 12.4286C13.8935 12.4286 15.4286 10.8935 15.4286 9C15.4286 7.10645 13.8935 5.57143 12 5.57143C10.1065 5.57143 8.57143 7.10645 8.57143 9C8.57143 10.8935 10.1065 12.4286 12 12.4286Z" fill="#DF9500"/>
   </g>
   <defs>
      <filter id="filter0_i_8018_52576" x="0" y="0" width="24" height="18" filterUnits="userSpaceOnUse" color-interpolation-filters="sRGB">
         <feFlood flood-opacity="0" result="BackgroundImageFix"/>
         <feBlend mode="normal" in="SourceGraphic" in2="BackgroundImageFix" result="shape"/>
         <feColorMatrix in="SourceAlpha" type="matrix" values="0 0 0 0 0 0 0 0 0 0 0 0 0 0 0 0 0 0 127 0" result="hardAlpha"/>
         <feOffset/>
         <feGaussianBlur stdDeviation="2"/>
         <feComposite in2="hardAlpha" operator="arithmetic" k2="-1" k3="1"/>
         <feColorMatrix type="matrix" values="0 0 0 0 0 0 0 0 0 0 0 0 0 0 0 0 0 0 0.5 0"/>
         <feBlend mode="normal" in2="shape" result="effect1_innerShadow_8018_52576"/>
      </filter>
   </defs>
</svg>
