<svg width="60" height="40" viewBox="0 0 60 40" fill="none" xmlns="http://www.w3.org/2000/svg">
<rect width="60" height="40" rx="4" fill="white"/>
<path d="M20 11.7495L30.0383 2L40 12.0578L30.0766 22L20 11.7495Z" fill="#003894" stroke="#B2B2B2"/>
<path d="M27.6545 6L27.0364 7.49515H29.9455C29.9455 7.49515 31.7636 7.31715 31.7636 9.09709C31.7636 10.877 30.0182 10.699 30.0182 10.699H27.7273L27 12.3366H29.9455C29.9455 12.3366 31.6545 12.1586 31.6545 13.7961C31.6545 15.4337 29.9455 15.3269 29.9455 15.3269H27.8364L27.0364 17L31.2182 16.9644C31.2182 16.9644 33.9091 17 33.9091 14.6505C33.9091 12.8705 32.7091 12.301 32.7091 12.301H35L34.3455 10.7702H33.0727C33.0727 10.7702 33.9818 9.88026 33.9818 8.6343C33.9818 7.38835 32.9636 6.0712 31.3636 6.0712L27.6545 6Z" fill="#B2B2B2"/>
<rect width="60" height="14.5098" transform="translate(0 25.4902)" fill="#003894"/>
<path d="M57.6606 28.0375H52.735C52.5004 28.0375 52.2994 28.2165 52.2659 28.4672L52.1319 29.2907C52.0983 29.5413 52.2324 29.7204 52.4669 29.7204H53.8743L53.1371 36.416C53.1036 36.6667 53.2711 36.8457 53.5057 36.8457H54.846C55.0805 36.8457 55.2816 36.6667 55.2816 36.416L56.0188 29.7204H57.3926C57.6271 29.7204 57.8282 29.5413 57.8617 29.2907L57.9957 28.4672C58.0292 28.2165 57.8617 28.0375 57.6606 28.0375Z" fill="white"/>
<path d="M41.1078 31.439L40.3036 28.7536C40.1361 28.2881 39.868 28.0375 39.667 28.0375H37.7905C37.556 28.0375 37.3549 28.2165 37.3214 28.4672L36.3497 36.416C36.3162 36.6667 36.4837 36.8457 36.7183 36.8457H38.0251C38.2597 36.8457 38.4607 36.6667 38.4607 36.416L38.9633 31.5106L39.6335 34.3751C39.7005 34.5899 39.868 34.8048 40.0691 34.8048H40.9738C41.2083 34.8048 41.5434 34.7332 41.7445 34.3751L42.7162 32.549L42.3141 36.416C42.2806 36.6667 42.4481 36.8457 42.6827 36.8457H43.9895C44.224 36.8457 44.3916 36.6667 44.4586 36.416L45.3968 28.4314C45.4303 28.1807 45.2963 28.0017 45.0617 28.0017H43.4534C43.4534 28.0017 42.9172 27.9301 42.5151 28.7178C42.2136 29.3623 41.1078 31.439 41.1078 31.439Z" fill="white"/>
<path d="M22.2094 28.0375H23.3822C23.6168 28.0375 23.7508 28.2165 23.7173 28.4672L22.8126 36.4518C22.7791 36.7025 22.578 36.8815 22.3435 36.8815H21.2377C20.9697 36.8815 20.7686 36.7025 20.6346 36.416C20.0314 35.4493 18.9257 32.8355 18.9257 32.8355L18.6241 36.416C18.5906 36.6667 18.3896 36.8457 18.1885 36.8457H16.8817C16.6472 36.8457 16.4796 36.6667 16.5131 36.416L17.4178 28.4672C17.4513 28.2165 17.6859 28.0375 17.8869 28.0375H18.9257C19.1602 28.0375 19.4618 28.4314 19.6629 28.7536L21.3047 31.3674L21.6063 28.4314C21.6063 28.4314 21.7068 28.0375 22.2094 28.0375Z" fill="white"/>
<path d="M11.9896 33.0145L12.6932 30.9378L12.9613 33.0145H11.9896ZM14.6367 28.682C14.5027 28.2881 14.2346 28.0375 14.0336 28.0375H12.1236C11.8891 28.0375 11.688 28.2165 11.6545 28.4672L8.6388 36.2728C8.50477 36.595 8.77283 36.8099 9.00739 36.8099H10.4147C10.7163 36.8099 10.8838 36.4518 10.9843 36.1654L11.487 34.6257H13.1959L13.4304 36.237C13.4304 36.237 13.4639 36.8457 14.1676 36.8457H15.4744C15.7089 36.8457 15.9435 36.5234 15.8765 36.1654L14.6367 28.682Z" fill="white"/>
<path d="M48.4125 33.0145L49.1162 30.9378L49.3842 33.0145H48.4125ZM51.0596 28.682C50.9256 28.2881 50.6575 28.0375 50.4565 28.0375H48.5465C48.312 28.0375 48.1109 28.2165 48.0774 28.4672L45.0617 36.2728C44.9277 36.595 45.1958 36.8099 45.4303 36.8099H46.8376C47.1392 36.8099 47.3067 36.4518 47.4073 36.1654L47.9099 34.6257H49.6188L49.8533 36.237C49.8533 36.237 49.8868 36.8457 50.5905 36.8457H51.8973C52.1319 36.8457 52.3664 36.5234 52.2994 36.1654L51.0596 28.682Z" fill="white"/>
<path d="M29.5476 28.1091H26.934C24.5215 28.1091 24.3204 30.5081 24.3204 30.5081C24.3204 30.5081 24.0524 31.9761 23.7508 34.4109C23.4492 36.8457 25.1581 36.8815 25.8953 36.8815H28.5424C28.777 36.8815 28.978 36.7025 29.0115 36.4518L29.112 35.5925C29.1455 35.3418 28.9445 35.2344 28.7099 35.2344H27.1351C25.6942 35.2344 25.9288 34.1603 25.9288 34.1603C25.9288 34.1603 26.2639 31.7255 26.3979 30.8303C26.5319 29.9352 27.2021 29.7204 27.8387 29.7204H29.3801C29.6147 29.7204 29.7822 29.5771 29.8157 29.3623L29.9162 28.503C29.9162 28.2881 29.7822 28.1091 29.5476 28.1091Z" fill="white"/>
<path d="M34.1717 30.7229C34.1717 30.7229 33.9707 33.1577 33.8366 33.9096C33.6356 34.9838 33.133 35.127 32.7309 35.127C31.6921 35.127 31.8932 34.1961 31.8932 34.1961C31.8932 34.1961 32.2283 31.7613 32.3623 30.8661C32.4963 29.971 32.9654 29.8636 33.6021 29.8636C34.2722 29.8636 34.1717 30.7229 34.1717 30.7229ZM34.6408 28.0733C33.5016 27.9301 32.5633 28.1091 32.5633 28.1091C30.5864 28.2881 30.3183 30.5081 30.3183 30.5081C30.3183 30.5081 30.0503 31.9761 29.7487 34.4109C29.4471 36.8815 31.1895 36.9889 32.2618 36.9889C32.2618 36.9889 35.4115 37.3112 35.8136 34.4825C36.2157 31.5823 36.2492 30.7229 36.3162 30.2216C36.4502 29.0401 35.7466 28.2165 34.6408 28.0733Z" fill="white"/>
<path d="M5.75714 31.3674C5.45557 31.3674 5.08698 31.3674 4.81892 31.3674L4.95295 30.2216H6.05871C6.05871 30.2216 6.56132 30.1858 6.52782 30.6871C6.42729 31.1884 6.22625 31.3316 5.75714 31.3674ZM6.22625 34.3751C6.12572 35.0554 5.79064 35.2702 5.28803 35.306C4.78541 35.3418 4.38332 35.306 4.38332 35.306L4.58437 33.4441H5.69012C5.69012 33.4441 6.36028 33.3725 6.22625 34.3751ZM7.26499 32.37C8.53828 31.6897 8.6053 30.6513 8.67231 30.0068C8.83985 28.3956 7.36551 28.1449 6.92991 28.1449H3.34458C3.11003 28.1449 2.87547 28.3597 2.84196 28.6104L2.00427 36.3802C1.97076 36.6308 2.1383 36.8457 2.37285 36.8457H6.19274C7.332 36.8457 8.37074 35.7715 8.50477 34.5541C8.73933 32.728 7.26499 32.37 7.26499 32.37Z" fill="white"/>
</svg>
