<svg width="60" height="40" viewBox="0 0 60 40" fill="none" xmlns="http://www.w3.org/2000/svg">
<rect width="60" height="40" rx="4" fill="white"/>
<path d="M45.333 24.201C45.083 24.98 44.5705 25.5164 43.9205 25.9889C40.833 28.1982 37.608 30.1522 34.183 31.7868C33.1705 32.2721 32.1705 32.8213 31.0955 33.115C29.433 33.5748 27.7955 33.281 26.258 32.4892C24.7705 31.723 23.308 30.944 21.8455 30.1394C21.6705 30.05 21.483 29.7691 21.483 29.5775C21.458 26.5891 21.458 23.6135 21.458 20.6379C21.458 20.5613 21.483 20.4719 21.4955 20.4336C24.6205 20.0505 27.583 20.3442 30.208 22.247C30.808 22.6812 31.4455 22.8728 32.183 22.8217C32.8705 22.7706 33.558 22.7834 34.2455 22.8217C34.608 22.8473 34.9955 22.9239 35.3205 23.0899C36.133 23.5114 36.258 24.4436 35.633 25.1077C34.808 26.0017 33.7205 26.1677 32.608 26.206C32.0955 26.2188 30.858 26.2188 30.333 26.206C29.858 26.1932 29.3441 25.9889 28.6663 26.6666C27.833 27.5 28.6663 28.7555 30.083 28.7555C31.258 28.6789 33.0955 28.1256 34.2455 27.8829C35.408 27.6403 36.5872 27.0465 36.9997 25.8333C37.1622 25.3608 38.2163 24.371 38.6663 24.1666C39.9663 23.5536 40.7122 23.1385 41.9997 22.5C43.6122 21.6826 44.608 21.7873 45.3205 23.4603C45.333 23.6901 45.333 23.9456 45.333 24.201Z" fill="#1A1A1A"/>
<path d="M15.333 19.3481C16.933 19.3481 18.533 19.3481 20.158 19.3481C20.158 23.2687 20.158 27.0616 20.158 30.9695C18.533 30.9695 16.933 30.9695 15.333 30.9695C15.333 27.1 15.333 23.2176 15.333 19.3481Z" fill="#1A1A1A"/>
<path d="M22.683 16.8705C23.483 14.0226 24.2705 11.2386 25.0705 8.37792C30.383 10.0126 35.658 11.6345 40.958 13.2564C40.158 16.1043 39.358 18.9011 38.558 21.7362C33.2705 20.1271 28.008 18.5052 22.683 16.8705ZM25.733 16.3341C29.158 17.4197 32.5205 18.4796 35.8955 19.5269C36.033 19.5652 36.233 19.4375 36.383 19.3608C36.7705 19.1565 37.158 18.9394 37.533 18.7095C37.683 18.6201 37.8955 18.518 37.9455 18.3647C38.2205 17.4963 38.458 16.6151 38.683 15.7339C38.7205 15.6062 38.6705 15.3508 38.583 15.2997C37.9705 14.9549 37.833 14.3802 37.8455 13.7289C34.358 12.6306 30.8955 11.5323 27.408 10.434C27.0955 11.2258 26.4955 11.4174 25.783 11.3791C25.4705 12.4901 25.1705 13.5629 24.858 14.6739C25.5455 14.9932 25.833 15.5296 25.733 16.3341Z" fill="#1A1A1A"/>
<path d="M43.583 11.5451C42.783 14.393 41.9955 17.177 41.1955 20.0249C40.808 19.9611 40.4705 19.91 40.0955 19.8461C40.6455 17.8028 41.1955 15.8105 41.7455 13.8183C41.9955 12.886 41.758 12.4263 40.833 12.1453C36.533 10.8044 32.233 9.46344 27.9205 8.10973C27.7455 8.05865 27.5705 7.99479 27.3455 7.91817C27.4705 7.5095 27.5705 7.12638 27.708 6.66663C33.008 8.30129 38.258 9.91042 43.583 11.5451Z" fill="#1A1A1A"/>
<path d="M33.983 15.1592C33.9705 16.2958 33.0955 17.1898 32.008 17.1642C30.958 17.1515 30.0705 16.2447 30.083 15.1592C30.083 14.0226 30.9455 13.1542 32.0705 13.1797C33.183 13.1925 33.983 14.0354 33.983 15.1592Z" fill="#1A1A1A"/>
</svg>
