<svg width="211" height="32" viewBox="0 0 211 32" fill="none" xmlns="http://www.w3.org/2000/svg">
    <path d="M50.4009 31.9999C56.9462 31.9999 62.0412 26.8288 62.0412 19.7686V0.667782H57.1752V19.7495C57.1752 24.0047 54.1411 27.115 50.3818 27.115C46.6226 27.115 43.6266 24.0047 43.6266 19.7495V0.667782H38.7797V19.7686C38.7797 26.8288 43.8556 31.9999 50.4009 31.9999Z" fill="white"/>
    <path d="M76.5248 31.9427C82.7648 31.9427 87.4973 28.4316 87.4973 22.9743C87.4973 18.1275 83.7189 15.7805 78.8529 13.6433C75.1127 12.0405 72.2694 11.1818 72.2694 8.7775C72.2694 6.60219 74.5212 4.84667 77.3454 4.84667C79.578 4.84667 81.6962 6.01066 82.6503 8.09056L86.2378 5.60994C84.9784 2.23248 81.6962 0.114413 77.3072 0.114413C71.7733 0.114413 67.4034 3.62544 67.4034 8.66301C67.4034 13.4907 71.4107 15.3607 75.0173 16.9635C78.6048 18.5092 82.6503 20.2265 82.6503 23.0697C82.6503 25.4167 80.036 27.0768 76.5821 27.0768C73.6243 27.0768 71.0672 25.703 69.6933 23.2987L65.8768 26.0274C67.6324 29.5765 71.468 31.9427 76.5248 31.9427Z" fill="white"/>
    <path d="M91.6573 31.4275H96.4851V0.667782H91.6573V31.4275Z" fill="white"/>
    <path d="M131.502 14.6356H116.942V19.0625H126.464V19.1579C126.464 23.852 122.495 27.0768 117.209 27.0768C110.644 27.0768 105.855 22.1156 105.855 16.0858C105.855 9.71251 111.16 5.01841 116.77 5.01841C119.689 5.01841 122.933 6.50678 125.338 8.87291L128.029 4.86575C125.128 2.04166 120.701 0.171658 116.827 0.152576C108.087 0.152576 100.95 7.34637 100.95 16.0858C100.95 24.8061 108.049 31.9427 116.999 31.9427C124.994 31.9427 131.635 26.18 131.635 17.0399C131.635 16.1812 131.578 15.3416 131.502 14.6356Z" fill="white"/>
    <path d="M154.725 31.4275H159.954L145.489 0.0380859H145.203L130.738 31.4275H135.967L138.066 26.7525H152.626L154.725 31.4275ZM139.936 22.6117L145.355 10.5903L150.756 22.6117H139.936Z" fill="white"/>
    <path d="M178.826 0.667782H157.492V5.45729H165.736V31.4275H170.582V5.45729H178.826V0.667782Z" fill="white"/>
    <path d="M201 5.41912V0.667782H182.681V31.4275H201V26.6189H187.509V18.1084H199.149V13.2999H187.509V5.41912H201Z" fill="white"/>
    <path d="M15.9973 20.913L0 0V32H6.66284V19.7959L15.9973 32L25.3345 19.7959L31.9973 11.0883V0L15.9973 20.913Z" fill="white"/>
    <path d="M23.9312 32H32V21.1587L23.9312 32Z" fill="#FF6600"/>
    <path d="M208.667 6L207.491 4.3995C207.955 4.25062 208.291 3.80149 208.291 3.28536C208.291 2.5732 207.674 2 206.922 2H205.667L205.669 6H206.303V4.45161H206.799L207.887 6H208.667ZM206.301 3.93052V2.62283H206.937C207.313 2.62283 207.637 2.89826 207.637 3.27047C207.637 3.62779 207.318 3.933 206.937 3.93052H206.301Z" fill="white"/>
    <path fill-rule="evenodd" clip-rule="evenodd" d="M207 8C209.209 8 211 6.20914 211 4C211 1.79086 209.209 0 207 0C204.791 0 203 1.79086 203 4C203 6.20914 204.791 8 207 8ZM207 7.33333C208.841 7.33333 210.333 5.84095 210.333 4C210.333 2.15905 208.841 0.666667 207 0.666667C205.159 0.666667 203.667 2.15905 203.667 4C203.667 5.84095 205.159 7.33333 207 7.33333Z" fill="white"/>
</svg>
