<svg width="56" height="67" viewBox="0 0 56 67" fill="none" xmlns="http://www.w3.org/2000/svg">
<path d="M15.7939 59.4673C17.3675 59.4673 18.5924 58.2592 18.5924 56.6097V52.1471H17.4225V56.6052C17.4225 57.5994 16.6931 58.3261 15.7893 58.3261C14.8855 58.3261 14.1653 57.5994 14.1653 56.6052V52.1471H13V56.6097C13 58.2592 14.2203 59.4673 15.7939 59.4673Z" fill="white"/>
<path d="M22.0745 59.454C23.5746 59.454 24.7124 58.6337 24.7124 57.3587C24.7124 56.2263 23.804 55.6779 22.6342 55.1786C21.735 54.8042 21.0514 54.6035 21.0514 54.0418C21.0514 53.5336 21.5928 53.1234 22.2717 53.1234C22.8085 53.1234 23.3177 53.3954 23.5471 53.8813L24.4096 53.3018C24.1068 52.5127 23.3177 52.0178 22.2626 52.0178C20.9321 52.0178 19.8815 52.8381 19.8815 54.0151C19.8815 55.143 20.845 55.5799 21.712 55.9543C22.5745 56.3155 23.5471 56.7167 23.5471 57.3809C23.5471 57.9293 22.9186 58.3171 22.0882 58.3171C21.3771 58.3171 20.7624 57.9962 20.4321 57.4344L19.5145 58.072C19.9366 58.9012 20.8587 59.454 22.0745 59.454Z" fill="white"/>
<path d="M25.7125 59.3336H26.8732V52.1471H25.7125V59.3336Z" fill="white"/>
<path d="M35.2916 55.4105H31.7912V56.4447H34.0805V56.467C34.0805 57.5637 33.1262 58.3171 31.8554 58.3171C30.2773 58.3171 29.1258 57.158 29.1258 55.7493C29.1258 54.2603 30.4011 53.1636 31.7499 53.1636C32.4518 53.1636 33.2317 53.5113 33.8098 54.0641L34.4567 53.1279C33.7593 52.4681 32.695 52.0312 31.7637 52.0267C29.6625 52.0267 27.9467 53.7075 27.9467 55.7493C27.9467 57.7866 29.6533 59.454 31.805 59.454C33.7272 59.454 35.3237 58.1076 35.3237 55.9722C35.3237 55.7716 35.31 55.5754 35.2916 55.4105Z" fill="white"/>
<path d="M40.8748 59.3336H42.1319L38.6544 52H38.5856L35.1081 59.3336H36.3651L36.8698 58.2414H40.3702L40.8748 59.3336ZM37.3194 57.2739L38.6223 54.4653L39.9206 57.2739H37.3194Z" fill="white"/>
<path d="M46.6691 52.1471H41.5401V53.2661H43.5219V59.3336H44.6872V53.2661H46.6691V52.1471Z" fill="white"/>
<path d="M52 53.2572V52.1471H47.5958V59.3336H52V58.2102H48.7565V56.2218H51.555V55.0984H48.7565V53.2572H52Z" fill="white"/>
<path d="M7.74937 56.9015L4 52V59.5H5.5616V56.6397L7.74937 59.5L9.93776 56.6397L11.4994 54.5988V52L7.74937 56.9015Z" fill="white"/>
<path d="M9.60889 59.4999H11.5V56.959L9.60889 59.4999Z" fill="#FF6600"/>
<path d="M52 60.8674H4V61.3331H52V60.8674Z" fill="white"/>
<path d="M4.00031 65.5808L4.4179 65.2837C4.49537 65.4136 4.60614 65.5202 4.73868 65.5925C4.87122 65.6649 5.02068 65.7003 5.17149 65.695C5.54938 65.695 5.8352 65.5143 5.8352 65.2575C5.8352 64.9482 5.39273 64.7609 5.00001 64.5929C4.60728 64.4249 4.16743 64.2149 4.16743 63.6895C4.17486 63.5561 4.20912 63.4256 4.26815 63.3058C4.32719 63.186 4.40978 63.0795 4.51096 62.9926C4.61214 62.9056 4.72981 62.8401 4.8569 62.7999C4.98399 62.7598 5.11787 62.7458 5.25047 62.7589C5.45535 62.743 5.66 62.7923 5.83538 62.8996C6.01076 63.007 6.14795 63.167 6.22748 63.357L5.83476 63.6269C5.78194 63.5185 5.69916 63.4276 5.59627 63.365C5.49338 63.3024 5.37471 63.2707 5.2544 63.2739C5.12454 63.2587 4.9939 63.2949 4.89026 63.3748C4.78661 63.4547 4.71813 63.572 4.69935 63.7017C4.69935 63.9642 5.01048 64.057 5.41935 64.2315C5.95127 64.4643 6.36494 64.7194 6.36494 65.2474C6.36494 65.8416 5.84741 66.224 5.16495 66.224C4.93 66.2384 4.69581 66.1855 4.48963 66.0716C4.28345 65.9578 4.11376 65.7876 4.00031 65.5808Z" fill="#FF6600"/>
<path d="M7.21283 64.8985V62.8191H7.743V64.8964C7.743 65.0936 7.82116 65.2828 7.96028 65.4223C8.09939 65.5618 8.28808 65.6401 8.48482 65.6401C8.68156 65.6401 8.87024 65.5618 9.00936 65.4223C9.14847 65.2828 9.22663 65.0936 9.22663 64.8964V62.8191H9.75855V64.8985C9.76635 65.0709 9.73923 65.2431 9.67882 65.4046C9.61842 65.5661 9.52599 65.7137 9.4071 65.8384C9.28822 65.9631 9.14536 66.0625 8.98714 66.1303C8.82892 66.1981 8.65863 66.233 8.48656 66.233C8.31449 66.233 8.1442 66.1981 7.98599 66.1303C7.82777 66.0625 7.68491 65.9631 7.56602 65.8384C7.44714 65.7137 7.35471 65.5661 7.2943 65.4046C7.2339 65.2431 7.20677 65.0709 7.21457 64.8985H7.21283Z" fill="#FF6600"/>
<path d="M10.636 64.4976C10.6321 64.1517 10.7308 63.8123 10.9196 63.5228C11.1085 63.2332 11.379 63.0065 11.6967 62.8715C12.0144 62.7365 12.365 62.6992 12.7039 62.7645C13.0428 62.8297 13.3546 62.9946 13.5998 63.238C13.845 63.4815 14.0125 63.7925 14.0809 64.1316C14.1493 64.4707 14.1156 64.8226 13.9841 65.1424C13.8526 65.4623 13.6291 65.7357 13.3422 65.9279C13.0553 66.1201 12.7178 66.2224 12.3728 66.2218C11.9153 66.2213 11.4764 66.04 11.1513 65.7173C10.8262 65.3945 10.6411 64.9563 10.636 64.4976ZM13.581 64.4937C13.5836 64.2539 13.5151 64.0188 13.3842 63.8182C13.2533 63.6176 13.0659 63.4606 12.8458 63.3669C12.6256 63.2733 12.3827 63.2473 12.1479 63.2924C11.913 63.3374 11.6968 63.4514 11.5267 63.6199C11.3566 63.7883 11.2402 64.0037 11.1924 64.2386C11.1446 64.4735 11.1675 64.7173 11.2581 64.9392C11.3488 65.161 11.5031 65.3509 11.7016 65.4846C11.9 65.6183 12.1336 65.6899 12.3728 65.6903C12.6907 65.6905 12.996 65.565 13.2222 65.341C13.4484 65.1169 13.5774 64.8124 13.581 64.4937Z" fill="#FF6600"/>
<path d="M17.7304 62.8107V66.2259H17.7051L15.5534 63.9884V66.1716H15.0254V62.759H15.0524L17.2002 64.9903V62.8072L17.7304 62.8107Z" fill="#FF6600"/>
<path d="M18.6423 64.4976C18.6383 64.1517 18.7371 63.8123 18.9259 63.5228C19.1148 63.2332 19.3853 63.0065 19.703 62.8715C20.0207 62.7365 20.3713 62.6992 20.7102 62.7645C21.049 62.8297 21.3609 62.9946 21.6061 63.238C21.8513 63.4815 22.0188 63.7925 22.0872 64.1316C22.1556 64.4707 22.1219 64.8226 21.9904 65.1424C21.8588 65.4623 21.6354 65.7357 21.3485 65.9279C21.0616 66.1201 20.7241 66.2224 20.379 66.2218C19.9215 66.2213 19.4827 66.04 19.1576 65.7173C18.8325 65.3945 18.6474 64.9563 18.6423 64.4976ZM21.5873 64.4937C21.5899 64.2539 21.5214 64.0188 21.3905 63.8182C21.2596 63.6176 21.0722 63.4606 20.8521 63.3669C20.6319 63.2733 20.389 63.2473 20.1542 63.2924C19.9193 63.3374 19.7031 63.4514 19.533 63.6199C19.3629 63.7883 19.2465 64.0037 19.1987 64.2386C19.1509 64.4735 19.1737 64.7173 19.2644 64.9392C19.355 65.161 19.5094 65.3509 19.7079 65.4846C19.9063 65.6183 20.1399 65.6899 20.379 65.6903C20.697 65.6905 21.0022 65.565 21.2285 65.341C21.4547 65.1169 21.5836 64.8124 21.5873 64.4937Z" fill="#FF6600"/>
<path d="M23.5597 63.3359V64.1938H24.833V64.7188H23.5597V65.6454H25.0354V66.1705H23.0317V62.8218H25.0354V63.3389L23.5597 63.3359Z" fill="white"/>
<path d="M27.8596 66.1677L26.9537 64.8714H26.5405V66.1677H26.0125V62.819H27.0598C27.353 62.8108 27.6375 62.9194 27.8511 63.121C28.0646 63.3226 28.1898 63.6009 28.1991 63.8949C28.1998 64.1007 28.1358 64.3016 28.0163 64.469C27.8968 64.6364 27.7278 64.7619 27.5332 64.8276L28.5124 66.1677H27.8596ZM27.0685 64.4352C27.2184 64.4378 27.3634 64.3814 27.4723 64.2781C27.5812 64.1748 27.6454 64.0328 27.651 63.8826C27.6486 63.8086 27.6315 63.7357 27.6008 63.6683C27.5702 63.6009 27.5265 63.5403 27.4724 63.4898C27.4182 63.4394 27.3547 63.4002 27.2854 63.3745C27.216 63.3488 27.1423 63.3371 27.0685 63.3401H26.5383V64.4339L27.0685 64.4352Z" fill="white"/>
<path d="M32.485 64.6012C32.4937 64.8151 32.4584 65.0286 32.3813 65.2282C32.3041 65.4279 32.1868 65.6095 32.0366 65.7618C31.8864 65.914 31.7066 66.0336 31.5083 66.1131C31.31 66.1926 31.0975 66.2303 30.884 66.2239C30.6552 66.2285 30.4277 66.1875 30.2149 66.1032C30.002 66.0189 29.808 65.893 29.6441 65.7329C29.4802 65.5727 29.3497 65.3815 29.2602 65.1703C29.1707 64.9591 29.124 64.7321 29.1228 64.5026C29.1216 64.2732 29.1659 64.0458 29.2531 63.8336C29.3404 63.6215 29.4688 63.4288 29.631 63.2669C29.7932 63.105 29.9859 62.9771 30.1978 62.8905C30.4098 62.804 30.6368 62.7606 30.8657 62.7628C31.3227 62.7792 31.7581 62.9616 32.091 63.276L31.7969 63.7135C31.5481 63.4605 31.2135 63.3107 30.8596 63.2939C30.7023 63.2971 30.5472 63.3313 30.4031 63.3945C30.259 63.4578 30.1288 63.5489 30.0198 63.6626C29.9108 63.7764 29.8252 63.9105 29.768 64.0573C29.7107 64.2042 29.6828 64.361 29.686 64.5187C29.6891 64.6764 29.7232 64.8319 29.7863 64.9764C29.8494 65.1208 29.9403 65.2515 30.0537 65.3607C30.1672 65.47 30.3009 65.5558 30.4475 65.6132C30.594 65.6706 30.7503 65.6985 30.9076 65.6954C31.0312 65.7093 31.1565 65.6978 31.2755 65.6614C31.3945 65.6249 31.5049 65.5645 31.5997 65.4837C31.6946 65.4029 31.7719 65.3035 31.827 65.1916C31.882 65.0797 31.9137 64.9577 31.9199 64.8331V64.823H30.8783V64.3417H32.4706C32.4799 64.4279 32.4847 64.5145 32.485 64.6012Z" fill="white"/>
<path d="M33.236 64.4976C33.232 64.1516 33.3307 63.8123 33.5196 63.5227C33.7085 63.2332 33.979 63.0064 34.2967 62.8714C34.6145 62.7364 34.9651 62.6992 35.3039 62.7645C35.6428 62.8298 35.9547 62.9947 36.1999 63.2382C36.4451 63.4816 36.6125 63.7927 36.6809 64.1319C36.7493 64.471 36.7155 64.8228 36.5839 65.1427C36.4523 65.4625 36.2288 65.7359 35.9418 65.9281C35.6548 66.1202 35.3173 66.2225 34.9722 66.2218C34.5148 66.2212 34.0761 66.0398 33.7511 65.7171C33.4261 65.3943 33.241 64.9562 33.236 64.4976ZM36.1809 64.4936C36.1835 64.2539 36.115 64.0188 35.9841 63.8182C35.8532 63.6176 35.6658 63.4606 35.4457 63.3669C35.2255 63.2733 34.9827 63.2473 34.7478 63.2924C34.5129 63.3374 34.2967 63.4514 34.1266 63.6199C33.9565 63.7883 33.8401 64.0037 33.7923 64.2386C33.7445 64.4735 33.7674 64.7173 33.858 64.9392C33.9487 65.161 34.103 65.3509 34.3015 65.4846C34.4999 65.6183 34.7336 65.6899 34.9727 65.6903C35.2906 65.6905 35.5959 65.565 35.8221 65.3409C36.0483 65.1169 36.1773 64.8124 36.1809 64.4936Z" fill="white"/>
<path d="M37.4312 65.5808L37.8487 65.2837C37.9262 65.4136 38.037 65.5202 38.1695 65.5925C38.3021 65.6649 38.4515 65.7003 38.6023 65.695C38.9802 65.695 39.266 65.5143 39.266 65.2575C39.266 64.9482 38.8236 64.7609 38.4313 64.5929C38.039 64.4249 37.5983 64.2149 37.5983 63.6895C37.6057 63.5561 37.64 63.4256 37.699 63.3058C37.758 63.186 37.8406 63.0795 37.9418 62.9926C38.043 62.9056 38.1607 62.8401 38.2877 62.7999C38.4148 62.7598 38.5487 62.7458 38.6813 62.7589C38.8861 62.7431 39.0907 62.7923 39.266 62.8997C39.4413 63.007 39.5784 63.167 39.6579 63.357L39.2652 63.6269C39.2124 63.5185 39.1297 63.4276 39.0269 63.365C38.9241 63.3024 38.8055 63.2708 38.6852 63.2739C38.5554 63.2586 38.4247 63.2948 38.321 63.3747C38.2173 63.4546 38.1489 63.572 38.1302 63.7017C38.1302 63.9642 38.4409 64.057 38.8502 64.2315C39.3826 64.4643 39.7958 64.7194 39.7958 65.2474C39.7958 65.8416 39.2778 66.224 38.5958 66.224C38.3608 66.2384 38.1267 66.1855 37.9205 66.0716C37.7143 65.9578 37.5446 65.7876 37.4312 65.5808Z" fill="#FF6600"/>
<path d="M40.5145 64.4976C40.5105 64.1517 40.6092 63.8123 40.7981 63.5228C40.9869 63.2332 41.2574 63.0065 41.5751 62.8715C41.8928 62.7365 42.2434 62.6992 42.5823 62.7645C42.9212 62.8297 43.233 62.9946 43.4782 63.238C43.7234 63.4815 43.8909 63.7925 43.9593 64.1316C44.0277 64.4707 43.9941 64.8226 43.8625 65.1424C43.731 65.4623 43.5075 65.7357 43.2206 65.9279C42.9337 66.1201 42.5962 66.2224 42.2512 66.2218C41.7937 66.2213 41.3548 66.04 41.0297 65.7173C40.7046 65.3945 40.5195 64.9563 40.5145 64.4976ZM43.4595 64.4937C43.462 64.2539 43.3935 64.0188 43.2626 63.8182C43.1317 63.6176 42.9443 63.4606 42.7242 63.3669C42.5041 63.2733 42.2612 63.2473 42.0263 63.2924C41.7915 63.3374 41.5752 63.4514 41.4051 63.6199C41.235 63.7883 41.1187 64.0037 41.0708 64.2386C41.023 64.4735 41.0459 64.7173 41.1365 64.9392C41.2272 65.161 41.3815 65.3509 41.58 65.4846C41.7785 65.6183 42.0121 65.6899 42.2512 65.6903C42.5691 65.6905 42.8744 65.565 43.1006 65.341C43.3268 65.1169 43.4558 64.8124 43.4595 64.4937Z" fill="#FF6600"/>
<path d="M47.6084 62.8107V66.2259H47.5831L45.4314 63.9884V66.1716H44.903V62.759H44.93L47.0778 64.9903V62.8072L47.6084 62.8107Z" fill="#FF6600"/>
<path d="M48.5203 64.4976C48.5163 64.1517 48.615 63.8123 48.8039 63.5228C48.9927 63.2332 49.2632 63.0065 49.5809 62.8715C49.8986 62.7365 50.2492 62.6992 50.5881 62.7645C50.927 62.8297 51.2388 62.9946 51.484 63.238C51.7292 63.4815 51.8967 63.7925 51.9651 64.1316C52.0336 64.4707 51.9998 64.8226 51.8683 65.1424C51.7368 65.4623 51.5133 65.7357 51.2264 65.9279C50.9395 66.1201 50.602 66.2224 50.257 66.2218C49.7995 66.2213 49.3606 66.04 49.0355 65.7173C48.7104 65.3945 48.5253 64.9563 48.5203 64.4976ZM51.4652 64.4937C51.4678 64.2539 51.3993 64.0188 51.2684 63.8182C51.1375 63.6176 50.9501 63.4606 50.73 63.3669C50.5099 63.2733 50.2669 63.2473 50.0321 63.2924C49.7972 63.3374 49.581 63.4514 49.4109 63.6199C49.2408 63.7883 49.1244 64.0037 49.0766 64.2386C49.0288 64.4735 49.0517 64.7173 49.1423 64.9392C49.233 65.161 49.3873 65.3509 49.5858 65.4846C49.7842 65.6183 50.0179 65.6899 50.257 65.6903C50.5749 65.6905 50.8802 65.565 51.1064 65.341C51.3326 65.1169 51.4616 64.8124 51.4652 64.4937Z" fill="#FF6600"/>
<path d="M27.996 31.3689L4 0V47.999H13.9943V29.6932L27.996 47.999L42.0017 29.6932L51.996 16.6321V0L27.996 31.3689Z" fill="white"/>
<path d="M39.8967 47.9991H52V31.7375L39.8967 47.9991Z" fill="#FF6600"/>
<path d="M55.125 2.25L54.6842 1.64981C54.8581 1.59398 54.984 1.42556 54.984 1.23201C54.984 0.96495 54.7528 0.75 54.4709 0.75H54L54.0009 2.25H54.2387V1.66935H54.4248L54.8327 2.25H55.125ZM54.2378 1.47395V0.983561H54.4765C54.6175 0.983561 54.7387 1.08685 54.7387 1.22643C54.7387 1.36042 54.6194 1.47488 54.4765 1.47395H54.2378Z" fill="white"/>
<path fill-rule="evenodd" clip-rule="evenodd" d="M54.5 3C55.3284 3 56 2.32843 56 1.5C56 0.671573 55.3284 0 54.5 0C53.6716 0 53 0.671573 53 1.5C53 2.32843 53.6716 3 54.5 3ZM54.5 2.75C55.1904 2.75 55.75 2.19036 55.75 1.5C55.75 0.809644 55.1904 0.25 54.5 0.25C53.8096 0.25 53.25 0.809644 53.25 1.5C53.25 2.19036 53.8096 2.75 54.5 2.75Z" fill="white"/>
</svg>
