<svg width="212" height="58" viewBox="0 0 212 58" fill="none" xmlns="http://www.w3.org/2000/svg">
  <path d="M0 54.2482L1.78386 52.9515C2.11549 53.5183 2.58892 53.9838 3.15501 54.2996C3.72111 54.6154 4.35926 54.77 5.00325 54.7475C6.61808 54.7475 7.83976 53.9592 7.83976 52.8438C7.83976 51.4932 5.94961 50.6773 4.27204 49.9416C2.58679 49.1809 0.714566 48.2927 0.714566 46.0001C0.714566 43.6063 2.7571 41.9378 5.34261 41.9378C6.21746 41.8685 7.09139 42.0834 7.84048 42.5522C8.58956 43.021 9.1758 43.7199 9.51605 44.5497L7.83848 45.7321C7.61187 45.2591 7.25795 44.8626 6.81859 44.5895C6.37923 44.3164 5.87282 44.1781 5.35926 44.191C4.80463 44.1241 4.24647 44.2819 3.80353 44.6309C3.3606 44.9798 3.06786 45.4922 2.98761 46.0592C2.98761 47.2009 4.31686 47.6095 6.06103 48.3715C8.33407 49.3858 10.1 50.5012 10.1 52.8044C10.1 55.3965 7.88842 57.0651 4.97765 57.0651C3.97308 57.1275 2.97188 56.896 2.09064 56.3973C1.2094 55.8986 0.484376 55.1533 0 54.2482Z" fill="#FF6600"/>
  <path d="M13.8911 51.6471V43.1875H15.9941V51.6373C15.9648 52.0534 16.0191 52.4713 16.1535 52.8648C16.2879 53.2583 16.4997 53.6191 16.7755 53.9245C17.0513 54.23 17.3852 54.4737 17.7565 54.6403C18.1278 54.8069 18.5284 54.8929 18.9334 54.8929C19.3384 54.8929 19.739 54.8069 20.1103 54.6403C20.4816 54.4737 20.8155 54.23 21.0914 53.9245C21.3672 53.6191 21.5789 53.2583 21.7133 52.8648C21.8478 52.4713 21.902 52.0534 21.8727 51.6373V43.1875H23.9828V51.6471C24.0124 52.3486 23.9038 53.049 23.6636 53.7062C23.4234 54.3633 23.0565 54.9635 22.5851 55.4706C22.1137 55.9778 21.5475 56.3814 20.9206 56.6571C20.2938 56.9328 19.6192 57.075 18.9376 57.075C18.256 57.075 17.5814 56.9328 16.9545 56.6571C16.3277 56.3814 15.7615 55.9778 15.2901 55.4706C14.8186 54.9635 14.4518 54.3633 14.2116 53.7062C13.9714 53.049 13.8628 52.3486 13.8923 51.6471H13.8911Z" fill="#FF6600"/>
  <path d="M27.7755 49.5941C27.7569 48.0917 28.1855 46.6177 29.0067 45.3595C29.828 44.1013 31.0049 43.1158 32.3878 42.5283C33.7706 41.9407 35.297 41.7777 36.7728 42.0599C38.2485 42.3421 39.607 43.0568 40.6755 44.1131C41.744 45.1695 42.4743 46.5197 42.7734 47.9921C43.0725 49.4646 42.9269 50.9927 42.3552 52.3822C41.7836 53.7717 40.8116 54.9598 39.5629 55.7954C38.3142 56.6311 36.8452 57.0765 35.3427 57.075C33.3512 57.0731 31.4406 56.2871 30.0244 54.887C28.6082 53.4869 27.8003 51.5854 27.7755 49.5941ZM40.6086 49.5758C40.6216 48.5338 40.3245 47.5115 39.7552 46.6387C39.186 45.7658 38.3701 45.0819 37.4113 44.6738C36.4525 44.2656 35.394 44.1516 34.3703 44.3462C33.3466 44.5409 32.4038 45.0354 31.6617 45.767C30.9196 46.4986 30.4117 47.4343 30.2025 48.4551C29.9933 49.476 30.0922 50.5359 30.4867 51.5005C30.8812 52.465 31.5534 53.2905 32.418 53.8722C33.2827 54.4538 34.3006 54.7654 35.3427 54.7673C36.7272 54.7698 38.0569 54.226 39.0428 53.254C40.0288 52.282 40.5914 50.9602 40.6086 49.5758Z" fill="#FF6600"/>
  <path d="M58.075 42.1422V57.075H57.9692L48.9306 47.2927V56.8394H46.7125V41.925H46.8258L55.848 51.689V42.1422H58.075Z" fill="#FF6600"/>
  <path d="M61.8629 49.5941C61.8458 48.0917 62.2387 46.6177 62.9915 45.3595C63.7444 44.1013 64.8232 43.1158 66.0908 42.5283C67.3584 41.9407 68.7576 41.7777 70.1104 42.0599C71.4632 42.3421 72.7084 43.0568 73.6879 44.1131C74.6674 45.1695 75.3367 46.5197 75.6109 47.9921C75.8851 49.4646 75.7517 50.9927 75.2277 52.3822C74.7036 53.7717 73.8126 54.9598 72.668 55.7954C71.5234 56.6311 70.1768 57.0765 68.7995 57.075C66.974 57.0731 65.2226 56.2871 63.9244 54.887C62.6262 53.4869 61.8856 51.5854 61.8629 49.5941ZM73.6266 49.5758C73.6387 48.5334 73.3665 47.5107 72.8446 46.6375C72.3227 45.7642 71.5747 45.0799 70.6955 44.6715C69.8164 44.2631 68.8457 44.1489 67.907 44.3436C66.9682 44.5383 66.1037 45.0329 65.4232 45.7648C64.7428 46.4966 64.277 47.4326 64.0852 48.4538C63.8934 49.4751 63.9842 50.5354 64.3461 51.5003C64.7079 52.4651 65.3245 53.2908 66.1174 53.8725C66.9104 54.4542 67.8439 54.7656 68.7995 54.7673C70.0687 54.7698 71.2875 54.226 72.1913 53.254C73.0951 52.282 73.6108 50.9602 73.6266 49.5758Z" fill="#FF6600"/>
  <path d="M81.8694 45.3366V48.8956H87.4832V51.0672H81.8694V54.9109H88.375V57.075H79.5375V43.1875H88.3697V45.3366H81.8694Z" fill="white"/>
  <path d="M100.573 57.075L96.4534 51.7074H94.5738V57.075H92.172L92.1625 43.1893H96.9182C98.2502 43.1556 99.5426 43.606 100.513 44.4422C101.484 45.2783 102.053 46.4322 102.098 47.6518C102.101 48.5064 101.81 49.3402 101.266 50.0348C100.723 50.7294 99.9538 51.2495 99.0691 51.5215L103.525 57.075H100.573ZM96.9755 49.8912C97.6566 49.9025 98.3153 49.6688 98.8104 49.2403C99.3056 48.8119 99.5976 48.2228 99.6239 47.5994C99.612 47.2923 99.5339 46.9905 99.3942 46.7112C99.2544 46.4319 99.0558 46.1806 98.8097 45.9718C98.5636 45.763 98.2748 45.6008 97.9601 45.4945C97.6453 45.3882 97.3107 45.34 96.9755 45.3525H94.5642V49.8925L96.9755 49.8912Z" fill="white"/>
  <path d="M119.932 49.9726C119.968 50.9095 119.82 51.8442 119.498 52.7183C119.177 53.5924 118.688 54.3872 118.062 55.0532C117.437 55.7192 116.688 56.2421 115.863 56.5894C115.037 56.9367 114.153 57.1009 113.265 57.0717C112.323 57.0771 111.388 56.8865 110.516 56.5109C109.643 56.1352 108.849 55.5819 108.179 54.8824C107.509 54.183 106.976 53.3511 106.611 52.4343C106.246 51.5175 106.055 50.5338 106.05 49.5392C106.045 48.5447 106.225 47.5588 106.581 46.6379C106.937 45.717 107.462 44.8792 108.125 44.1721C108.787 43.4651 109.576 42.9027 110.444 42.5172C111.313 42.1316 112.245 41.9304 113.188 41.925C115.089 41.9941 116.902 42.7898 118.29 44.1641L117.065 46.0726C116.028 44.9652 114.635 44.3098 113.161 44.2366C112.5 44.2377 111.845 44.378 111.235 44.6493C110.625 44.9205 110.073 45.3173 109.61 45.8165C109.147 46.3157 108.783 46.9071 108.54 47.5564C108.296 48.2057 108.177 48.8997 108.191 49.5979C108.204 50.2961 108.349 50.9844 108.617 51.6228C108.886 52.2611 109.272 52.8367 109.753 53.3157C110.235 53.7947 110.802 54.1677 111.422 54.4128C112.041 54.6579 112.701 54.7702 113.362 54.7431C115.77 54.7431 117.577 53.2074 117.577 50.9709V50.9314H113.241V48.824H119.872C119.912 49.2055 119.932 49.5889 119.932 49.9726Z" fill="white"/>
  <path d="M122.463 49.5941C122.444 48.0917 122.873 46.6177 123.694 45.3595C124.515 44.1013 125.692 43.1158 127.075 42.5283C128.458 41.9407 129.984 41.7777 131.46 42.0599C132.936 42.3421 134.294 43.0568 135.363 44.1131C136.431 45.1695 137.162 46.5197 137.461 47.9921C137.76 49.4646 137.614 50.9927 137.043 52.3822C136.471 53.7717 135.499 54.9598 134.25 55.7954C133.002 56.6311 131.533 57.0765 130.03 57.075C128.039 57.0731 126.128 56.2871 124.712 54.887C123.296 53.4869 122.488 51.5854 122.463 49.5941ZM135.296 49.5758C135.309 48.5335 135.012 47.5108 134.443 46.6376C133.874 45.7644 133.058 45.0801 132.099 44.6716C131.14 44.2632 130.081 44.1489 129.057 44.3435C128.033 44.5381 127.09 45.0326 126.347 45.7643C125.605 46.496 125.097 47.4319 124.887 48.4531C124.678 49.4742 124.777 50.5345 125.172 51.4994C125.566 52.4642 126.238 53.29 127.103 53.8718C127.968 54.4537 128.986 54.7654 130.029 54.7673C131.414 54.7701 132.744 54.2265 133.73 53.2544C134.716 52.2824 135.279 50.9604 135.296 49.5758Z" fill="white"/>
  <path d="M140.138 54.2481L141.921 52.9514C142.252 53.5184 142.726 53.984 143.292 54.2998C143.858 54.6157 144.496 54.7702 145.14 54.7474C146.754 54.7474 147.975 53.9591 147.975 52.8437C147.975 51.4931 146.086 50.6772 144.41 49.9415C142.725 49.1808 140.852 48.2927 140.852 46.0001C140.852 43.6064 142.894 41.9379 145.48 41.9379C146.355 41.8683 147.229 42.0832 147.978 42.552C148.726 43.0208 149.313 43.7198 149.653 44.5497L147.975 45.7321C147.749 45.2593 147.395 44.863 146.956 44.5899C146.517 44.3168 146.011 44.1784 145.498 44.191C144.944 44.1238 144.385 44.2815 143.942 44.6305C143.5 44.9794 143.207 45.4921 143.127 46.0592C143.127 47.2009 144.455 47.6095 146.2 48.3715C148.473 49.3858 150.238 50.5012 150.238 52.8043C150.238 55.3964 148.027 57.0649 145.117 57.0649C144.112 57.1279 143.11 56.8966 142.229 56.3979C141.347 55.8991 140.622 55.1536 140.138 54.2481Z" fill="#FF6600"/>
  <path d="M152.763 49.6005C152.743 48.0976 153.171 46.6227 153.992 45.3635C154.812 44.1044 155.989 43.1179 157.372 42.5295C158.755 41.9411 160.282 41.7776 161.759 42.0596C163.235 42.3416 164.594 43.0564 165.663 44.1131C166.732 45.1698 167.462 46.5207 167.761 47.9937C168.06 49.4667 167.914 50.9954 167.342 52.3852C166.769 53.7749 165.796 54.963 164.546 55.7981C163.297 56.6333 161.827 57.0778 160.324 57.075C158.334 57.0731 156.425 56.2877 155.01 54.8889C153.595 53.49 152.788 51.5901 152.763 49.6005ZM165.585 49.5822C165.598 48.5408 165.302 47.5189 164.733 46.6464C164.164 45.774 163.349 45.0902 162.39 44.6822C161.432 44.2741 160.374 44.1601 159.351 44.3546C158.328 44.5491 157.385 45.0433 156.644 45.7745C155.902 46.5057 155.394 47.4409 155.185 48.4613C154.976 49.4816 155.075 50.5411 155.47 51.5051C155.864 52.469 156.536 53.294 157.4 53.8752C158.265 54.4564 159.282 54.7676 160.324 54.7693C161.707 54.7718 163.036 54.2284 164.021 53.2573C165.006 52.2861 165.568 50.9655 165.585 49.5822Z" fill="#FF6600"/>
  <path d="M183.063 42.1422V57.075H182.957L173.919 47.2927V56.8394H171.7V41.925H171.815L180.836 51.689V42.1422H183.063Z" fill="#FF6600"/>
  <path d="M186.851 49.5941C186.832 48.0917 187.26 46.6177 188.082 45.3595C188.903 44.1013 190.08 43.1158 191.463 42.5283C192.846 41.9407 194.372 41.7777 195.848 42.0599C197.324 42.3421 198.682 43.0568 199.75 44.1131C200.819 45.1695 201.549 46.5197 201.848 47.9921C202.147 49.4646 202.002 50.9927 201.43 52.3822C200.859 53.7717 199.887 54.9598 198.638 55.7954C197.389 56.6311 195.92 57.0765 194.418 57.075C192.426 57.0731 190.516 56.2871 189.099 54.887C187.683 53.4869 186.875 51.5854 186.851 49.5941ZM199.684 49.5758C199.697 48.5334 199.4 47.5106 198.83 46.6373C198.261 45.7641 197.445 45.0798 196.486 44.6714C195.527 44.263 194.468 44.1489 193.444 44.3437C192.419 44.5385 191.476 45.0333 190.734 45.7652C189.992 46.4972 189.484 47.4333 189.275 48.4546C189.066 49.476 189.165 50.5364 189.56 51.5012C189.955 52.4659 190.628 53.2916 191.493 53.8731C192.358 54.4547 193.376 54.7659 194.419 54.7673C195.803 54.7698 197.133 54.2259 198.119 53.2539C199.104 52.2818 199.667 50.9601 199.684 49.5758Z" fill="#FF6600"/>
  <path d="M202 37H1V38H202V37Z" fill="white"/>
  <path d="M51.4009 31.9999C57.9462 31.9999 63.0412 26.8288 63.0412 19.7686V0.667782H58.1752V19.7495C58.1752 24.0047 55.1411 27.115 51.3818 27.115C47.6226 27.115 44.6266 24.0047 44.6266 19.7495V0.667782H39.7797V19.7686C39.7797 26.8288 44.8556 31.9999 51.4009 31.9999Z" fill="white"/>
  <path d="M77.5248 31.9427C83.7648 31.9427 88.4973 28.4316 88.4973 22.9743C88.4973 18.1275 84.7189 15.7805 79.8529 13.6433C76.1127 12.0405 73.2694 11.1818 73.2694 8.7775C73.2694 6.60219 75.5212 4.84667 78.3454 4.84667C80.578 4.84667 82.6962 6.01066 83.6503 8.09056L87.2378 5.60994C85.9784 2.23248 82.6962 0.114413 78.3072 0.114413C72.7733 0.114413 68.4034 3.62544 68.4034 8.66301C68.4034 13.4907 72.4107 15.3607 76.0173 16.9635C79.6048 18.5092 83.6503 20.2265 83.6503 23.0697C83.6503 25.4167 81.036 27.0768 77.5821 27.0768C74.6243 27.0768 72.0672 25.703 70.6933 23.2987L66.8768 26.0274C68.6324 29.5765 72.468 31.9427 77.5248 31.9427Z" fill="white"/>
  <path d="M92.6573 31.4275H97.4851V0.667782H92.6573V31.4275Z" fill="white"/>
  <path d="M132.502 14.6356H117.942V19.0625H127.464V19.1579C127.464 23.852 123.495 27.0768 118.209 27.0768C111.644 27.0768 106.855 22.1156 106.855 16.0858C106.855 9.71251 112.16 5.01841 117.77 5.01841C120.689 5.01841 123.933 6.50678 126.338 8.87291L129.029 4.86575C126.128 2.04166 121.701 0.171658 117.827 0.152576C109.087 0.152576 101.95 7.34637 101.95 16.0858C101.95 24.8061 109.049 31.9427 117.999 31.9427C125.994 31.9427 132.635 26.18 132.635 17.0399C132.635 16.1812 132.578 15.3416 132.502 14.6356Z" fill="white"/>
  <path d="M155.725 31.4275H160.954L146.489 0.0380859H146.203L131.738 31.4275H136.967L139.066 26.7525H153.626L155.725 31.4275ZM140.936 22.6117L146.355 10.5903L151.756 22.6117H140.936Z" fill="white"/>
  <path d="M179.826 0.667782H158.492V5.45729H166.736V31.4275H171.582V5.45729H179.826V0.667782Z" fill="white"/>
  <path d="M202 5.41912V0.667782H183.681V31.4275H202V26.6189H188.509V18.1084H200.149V13.2999H188.509V5.41912H202Z" fill="white"/>
  <path d="M16.9973 20.913L1 0V32H7.66284V19.7959L16.9973 32L26.3345 19.7959L32.9973 11.0883V0L16.9973 20.913Z" fill="white"/>
  <path d="M24.9312 32H33V21.1587L24.9312 32Z" fill="#FF6600"/>
  <path d="M209.667 6L208.491 4.3995C208.955 4.25062 209.291 3.80149 209.291 3.28536C209.291 2.5732 208.674 2 207.922 2H206.667L206.669 6H207.303V4.45161H207.799L208.887 6H209.667ZM207.301 3.93052V2.62283H207.937C208.313 2.62283 208.637 2.89826 208.637 3.27047C208.637 3.62779 208.318 3.933 207.937 3.93052H207.301Z" fill="white"/>
  <path fill-rule="evenodd" clip-rule="evenodd" d="M208 8C210.209 8 212 6.20914 212 4C212 1.79086 210.209 0 208 0C205.791 0 204 1.79086 204 4C204 6.20914 205.791 8 208 8ZM208 7.33333C209.841 7.33333 211.333 5.84095 211.333 4C211.333 2.15905 209.841 0.666667 208 0.666667C206.159 0.666667 204.667 2.15905 204.667 4C204.667 5.84095 206.159 7.33333 208 7.33333Z" fill="white"/>
</svg>
