<svg width="56" height="67" viewBox="0 0 56 67" fill="none" xmlns="http://www.w3.org/2000/svg">
<path d="M15.7939 59.499C17.3675 59.499 18.5924 58.2047 18.5924 56.4375V51.6566H17.4225V56.4328C17.4225 57.4978 16.6931 58.2763 15.7893 58.2763C14.8855 58.2763 14.1653 57.4978 14.1653 56.4328V51.6566H13V56.4375C13 58.2047 14.2203 59.499 15.7939 59.499Z" fill="white"/>
<path d="M22.0745 59.4847C23.5746 59.4847 24.7124 58.6059 24.7124 57.2399C24.7124 56.0268 23.804 55.4393 22.6342 54.9044C21.735 54.5032 21.0514 54.2883 21.0514 53.6865C21.0514 53.142 21.5928 52.7026 22.2717 52.7026C22.8085 52.7026 23.3177 52.9939 23.5471 53.5145L24.4096 52.8937C24.1068 52.0483 23.3177 51.5181 22.2626 51.5181C20.9321 51.5181 19.8815 52.3969 19.8815 53.6578C19.8815 54.8662 20.845 55.3342 21.712 55.7354C22.5745 56.1223 23.5471 56.5522 23.5471 57.2638C23.5471 57.8513 22.9186 58.2668 22.0882 58.2668C21.3771 58.2668 20.7624 57.9229 20.4321 57.3211L19.5145 58.0041C19.9366 58.8925 20.8587 59.4847 22.0745 59.4847Z" fill="white"/>
<path d="M25.7125 59.3557H26.8732V51.6566H25.7125V59.3557Z" fill="white"/>
<path d="M35.2916 55.1528H31.7912V56.2608H34.0805V56.2847C34.0805 57.4596 33.1262 58.2668 31.8554 58.2668C30.2773 58.2668 29.1258 57.025 29.1258 55.5157C29.1258 53.9205 30.4011 52.7456 31.7499 52.7456C32.4518 52.7456 33.2317 53.1181 33.8098 53.7104L34.4567 52.7074C33.7593 52.0005 32.695 51.5325 31.7637 51.5277C29.6625 51.5277 27.9467 53.3283 27.9467 55.5157C27.9467 57.6984 29.6533 59.4847 31.805 59.4847C33.7272 59.4847 35.3237 58.0423 35.3237 55.7545C35.3237 55.5396 35.31 55.3295 35.2916 55.1528Z" fill="white"/>
<path d="M40.8748 59.3557H42.1319L38.6544 51.499H38.5856L35.1081 59.3557H36.3651L36.8698 58.1856H40.3702L40.8748 59.3557ZM37.3194 57.1492L38.6223 54.1402L39.9206 57.1492H37.3194Z" fill="white"/>
<path d="M46.6691 51.6566H41.5401V52.8554H43.5219V59.3557H44.6872V52.8554H46.6691V51.6566Z" fill="white"/>
<path d="M52 52.8459V51.6566H47.5958V59.3557H52V58.1522H48.7565V56.022H51.555V54.8184H48.7565V52.8459H52Z" fill="white"/>
<path d="M7.49941 56.7273L4 51.499V59.499H5.4575V56.448L7.49941 59.499L9.54191 56.448L10.9994 54.2711V51.499L7.49941 56.7273Z" fill="white"/>
<path d="M9.23492 59.4991H11V56.7888L9.23492 59.4991Z" fill="#FF6600"/>
<path d="M52 60.999H4V61.4979H52V60.999Z" fill="white"/>
<path d="M4.00031 65.8453L4.4179 65.5483C4.49537 65.6781 4.60614 65.7848 4.73868 65.8571C4.87122 65.9294 5.02068 65.9648 5.17149 65.9596C5.54938 65.9596 5.8352 65.7789 5.8352 65.5221C5.8352 65.2128 5.39273 65.0255 5.00001 64.8575C4.60728 64.6895 4.16743 64.4795 4.16743 63.9541C4.17486 63.8207 4.20912 63.6902 4.26815 63.5704C4.32719 63.4507 4.40978 63.3441 4.51096 63.2572C4.61214 63.1703 4.72981 63.1047 4.8569 63.0646C4.98399 63.0244 5.11787 63.0105 5.25047 63.0236C5.45535 63.0077 5.66 63.0569 5.83538 63.1643C6.01076 63.2716 6.14795 63.4316 6.22748 63.6216L5.83476 63.8915C5.78194 63.7831 5.69916 63.6922 5.59627 63.6296C5.49338 63.567 5.37471 63.5354 5.2544 63.5385C5.12454 63.5233 4.9939 63.5596 4.89026 63.6395C4.78661 63.7194 4.71813 63.8366 4.69935 63.9664C4.69935 64.2289 5.01048 64.3216 5.41935 64.4961C5.95127 64.7289 6.36494 64.9839 6.36494 65.512C6.36494 66.1061 5.84741 66.4885 5.16495 66.4885C4.93 66.5029 4.69581 66.45 4.48963 66.3362C4.28345 66.2223 4.11376 66.0521 4.00031 65.8453Z" fill="#FF6600"/>
<path d="M7.21283 65.1631V63.0837H7.743V65.161C7.743 65.3582 7.82116 65.5474 7.96028 65.6868C8.09939 65.8263 8.28808 65.9047 8.48482 65.9047C8.68156 65.9047 8.87024 65.8263 9.00936 65.6868C9.14847 65.5474 9.22663 65.3582 9.22663 65.161V63.0837H9.75855V65.1631C9.76635 65.3354 9.73923 65.5076 9.67882 65.6692C9.61842 65.8307 9.52599 65.9782 9.4071 66.103C9.28822 66.2277 9.14536 66.327 8.98714 66.3948C8.82892 66.4626 8.65863 66.4976 8.48656 66.4976C8.31449 66.4976 8.1442 66.4626 7.98599 66.3948C7.82777 66.327 7.68491 66.2277 7.56602 66.103C7.44714 65.9782 7.35471 65.8307 7.2943 65.6692C7.2339 65.5076 7.20677 65.3354 7.21457 65.1631H7.21283Z" fill="#FF6600"/>
<path d="M10.636 64.7622C10.6321 64.4163 10.7308 64.077 10.9196 63.7874C11.1085 63.4979 11.379 63.2712 11.6967 63.1361C12.0144 63.0011 12.365 62.9639 12.7039 63.0291C13.0428 63.0944 13.3546 63.2592 13.5998 63.5027C13.845 63.7461 14.0125 64.0571 14.0809 64.3962C14.1493 64.7353 14.1156 65.0872 13.9841 65.407C13.8526 65.7269 13.6291 66.0002 13.3422 66.1924C13.0553 66.3846 12.7178 66.4869 12.3728 66.4864C11.9153 66.4858 11.4764 66.3045 11.1513 65.9818C10.8262 65.6591 10.6411 65.2209 10.636 64.7622ZM13.581 64.7582C13.5836 64.5185 13.5151 64.2834 13.3842 64.0828C13.2533 63.8822 13.0659 63.7252 12.8458 63.6316C12.6256 63.5379 12.3827 63.512 12.1479 63.557C11.913 63.6021 11.6968 63.716 11.5267 63.8845C11.3566 64.053 11.2402 64.2684 11.1924 64.5032C11.1446 64.7381 11.1675 64.9819 11.2581 65.2037C11.3488 65.4256 11.5031 65.6154 11.7016 65.7492C11.9 65.8829 12.1336 65.9545 12.3728 65.9548C12.6907 65.9551 12.996 65.8295 13.2222 65.6055C13.4484 65.3815 13.5774 65.077 13.581 64.7582Z" fill="#FF6600"/>
<path d="M17.7304 63.0753V66.4904H17.7051L15.5534 64.2531V66.4361H15.0254V63.0237H15.0524L17.2002 65.2549V63.0718L17.7304 63.0753Z" fill="#FF6600"/>
<path d="M18.6423 64.7622C18.6383 64.4163 18.7371 64.077 18.9259 63.7874C19.1148 63.4979 19.3853 63.2712 19.703 63.1361C20.0207 63.0011 20.3713 62.9639 20.7102 63.0291C21.049 63.0944 21.3609 63.2592 21.6061 63.5027C21.8513 63.7461 22.0188 64.0571 22.0872 64.3962C22.1556 64.7353 22.1219 65.0872 21.9904 65.407C21.8588 65.7269 21.6354 66.0002 21.3485 66.1924C21.0616 66.3846 20.7241 66.4869 20.379 66.4864C19.9215 66.4858 19.4827 66.3045 19.1576 65.9818C18.8325 65.6591 18.6474 65.2209 18.6423 64.7622ZM21.5873 64.7582C21.5899 64.5185 21.5214 64.2834 21.3905 64.0828C21.2596 63.8822 21.0722 63.7252 20.8521 63.6316C20.6319 63.5379 20.389 63.512 20.1542 63.557C19.9193 63.6021 19.7031 63.716 19.533 63.8845C19.3629 64.053 19.2465 64.2684 19.1987 64.5032C19.1509 64.7381 19.1737 64.9819 19.2644 65.2037C19.355 65.4256 19.5094 65.6154 19.7079 65.7492C19.9063 65.8829 20.1399 65.9545 20.379 65.9548C20.697 65.9551 21.0022 65.8295 21.2285 65.6055C21.4547 65.3815 21.5836 65.077 21.5873 64.7582Z" fill="#FF6600"/>
<path d="M23.5597 63.6005V64.4584H24.833V64.9834H23.5597V65.91H25.0354V66.435H23.0317V63.0864H25.0354V63.6035L23.5597 63.6005Z" fill="white"/>
<path d="M27.8596 66.4322L26.9537 65.136H26.5405V66.4322H26.0125V63.0837H27.0598C27.353 63.0754 27.6375 63.184 27.8511 63.3856C28.0646 63.5873 28.1898 63.8655 28.1991 64.1595C28.1998 64.3653 28.1358 64.5662 28.0163 64.7336C27.8968 64.901 27.7278 65.0264 27.5332 65.0922L28.5124 66.4322H27.8596ZM27.0685 64.6998C27.2184 64.7024 27.3634 64.646 27.4723 64.5427C27.5812 64.4394 27.6454 64.2974 27.651 64.1472C27.6486 64.0732 27.6315 64.0003 27.6008 63.9329C27.5702 63.8655 27.5265 63.8049 27.4724 63.7545C27.4182 63.704 27.3547 63.6648 27.2854 63.6392C27.216 63.6135 27.1423 63.6018 27.0685 63.6048H26.5383V64.6985L27.0685 64.6998Z" fill="white"/>
<path d="M32.485 64.8658C32.4937 65.0797 32.4584 65.2931 32.3813 65.4928C32.3041 65.6925 32.1868 65.8741 32.0366 66.0263C31.8864 66.1785 31.7066 66.2981 31.5083 66.3776C31.31 66.4571 31.0975 66.4948 30.884 66.4884C30.6552 66.4931 30.4277 66.4521 30.2149 66.3678C30.002 66.2835 29.808 66.1576 29.6441 65.9974C29.4802 65.8372 29.3497 65.646 29.2602 65.4348C29.1707 65.2237 29.124 64.9967 29.1228 64.7672C29.1216 64.5378 29.1659 64.3104 29.2531 64.0982C29.3404 63.8861 29.4688 63.6935 29.631 63.5316C29.7932 63.3697 29.9859 63.2417 30.1978 63.1552C30.4098 63.0686 30.6368 63.0252 30.8657 63.0274C31.3227 63.0439 31.7581 63.2263 32.091 63.5406L31.7969 63.9781C31.5481 63.7251 31.2135 63.5753 30.8596 63.5585C30.7023 63.5617 30.5472 63.5959 30.4031 63.6591C30.259 63.7224 30.1288 63.8135 30.0198 63.9272C29.9108 64.041 29.8252 64.1751 29.768 64.3219C29.7107 64.4688 29.6828 64.6256 29.686 64.7833C29.6891 64.941 29.7232 65.0965 29.7863 65.2409C29.8494 65.3854 29.9403 65.516 30.0537 65.6253C30.1672 65.7345 30.3009 65.8203 30.4475 65.8777C30.594 65.9352 30.7503 65.9631 30.9076 65.9599C31.0312 65.9739 31.1565 65.9623 31.2755 65.9259C31.3945 65.8895 31.5049 65.829 31.5997 65.7482C31.6946 65.6674 31.7719 65.568 31.827 65.4562C31.882 65.3443 31.9137 65.2223 31.9199 65.0977V65.0876H30.8783V64.6063H32.4706C32.4799 64.6925 32.4847 64.7791 32.485 64.8658Z" fill="white"/>
<path d="M33.236 64.7622C33.232 64.4162 33.3307 64.0769 33.5196 63.7873C33.7085 63.4978 33.979 63.2711 34.2967 63.1361C34.6145 63.0011 34.9651 62.9639 35.3039 63.0292C35.6428 63.0945 35.9547 63.2593 36.1999 63.5028C36.4451 63.7463 36.6125 64.0573 36.6809 64.3965C36.7493 64.7356 36.7155 65.0874 36.5839 65.4073C36.4523 65.7271 36.2288 66.0005 35.9418 66.1926C35.6548 66.3848 35.3173 66.487 34.9722 66.4864C34.5148 66.4857 34.0761 66.3043 33.7511 65.9816C33.4261 65.6589 33.241 65.2208 33.236 64.7622ZM36.1809 64.7582C36.1835 64.5185 36.115 64.2834 35.9841 64.0828C35.8532 63.8822 35.6658 63.7252 35.4457 63.6316C35.2255 63.5379 34.9827 63.512 34.7478 63.557C34.5129 63.602 34.2967 63.716 34.1266 63.8845C33.9565 64.0529 33.8401 64.2683 33.7923 64.5032C33.7445 64.7381 33.7674 64.9819 33.858 65.2037C33.9487 65.4256 34.103 65.6154 34.3015 65.7492C34.4999 65.8829 34.7336 65.9545 34.9727 65.9548C35.2906 65.9551 35.5959 65.8295 35.8221 65.6055C36.0483 65.3815 36.1773 65.077 36.1809 64.7582Z" fill="white"/>
<path d="M37.4312 65.8453L37.8487 65.5483C37.9262 65.6781 38.037 65.7848 38.1695 65.8571C38.3021 65.9294 38.4515 65.9648 38.6023 65.9596C38.9802 65.9596 39.266 65.7789 39.266 65.5221C39.266 65.2128 38.8236 65.0255 38.4313 64.8575C38.039 64.6895 37.5983 64.4795 37.5983 63.9541C37.6057 63.8207 37.64 63.6902 37.699 63.5704C37.758 63.4507 37.8406 63.3441 37.9418 63.2572C38.043 63.1703 38.1607 63.1047 38.2877 63.0646C38.4148 63.0244 38.5487 63.0105 38.6813 63.0236C38.8861 63.0077 39.0907 63.057 39.266 63.1643C39.4413 63.2717 39.5784 63.4317 39.6579 63.6216L39.2652 63.8915C39.2124 63.7832 39.1297 63.6922 39.0269 63.6296C38.9241 63.567 38.8055 63.5354 38.6852 63.5385C38.5554 63.5232 38.4247 63.5594 38.321 63.6393C38.2173 63.7192 38.1489 63.8366 38.1302 63.9664C38.1302 64.2289 38.4409 64.3216 38.8502 64.4961C39.3826 64.7289 39.7958 64.9839 39.7958 65.512C39.7958 66.1061 39.2778 66.4885 38.5958 66.4885C38.3608 66.5029 38.1267 66.45 37.9205 66.3362C37.7143 66.2223 37.5446 66.0521 37.4312 65.8453Z" fill="#FF6600"/>
<path d="M40.5145 64.7622C40.5105 64.4163 40.6092 64.077 40.7981 63.7874C40.9869 63.4979 41.2574 63.2712 41.5751 63.1361C41.8928 63.0011 42.2434 62.9639 42.5823 63.0291C42.9212 63.0944 43.233 63.2592 43.4782 63.5027C43.7234 63.7461 43.8909 64.0571 43.9593 64.3962C44.0277 64.7353 43.9941 65.0872 43.8625 65.407C43.731 65.7269 43.5075 66.0002 43.2206 66.1924C42.9337 66.3846 42.5962 66.4869 42.2512 66.4864C41.7937 66.4858 41.3548 66.3045 41.0297 65.9818C40.7046 65.6591 40.5195 65.2209 40.5145 64.7622ZM43.4595 64.7582C43.462 64.5185 43.3935 64.2834 43.2626 64.0828C43.1317 63.8822 42.9443 63.7252 42.7242 63.6316C42.5041 63.5379 42.2612 63.512 42.0263 63.557C41.7915 63.6021 41.5752 63.716 41.4051 63.8845C41.235 64.053 41.1187 64.2684 41.0708 64.5032C41.023 64.7381 41.0459 64.9819 41.1365 65.2037C41.2272 65.4256 41.3815 65.6154 41.58 65.7492C41.7785 65.8829 42.0121 65.9545 42.2512 65.9548C42.5691 65.9551 42.8744 65.8295 43.1006 65.6055C43.3268 65.3815 43.4558 65.077 43.4595 64.7582Z" fill="#FF6600"/>
<path d="M47.6084 63.0753V66.4904H47.5831L45.4314 64.2531V66.4361H44.903V63.0237H44.93L47.0778 65.2549V63.0718L47.6084 63.0753Z" fill="#FF6600"/>
<path d="M48.5203 64.7622C48.5163 64.4163 48.615 64.077 48.8039 63.7874C48.9927 63.4979 49.2632 63.2712 49.5809 63.1361C49.8986 63.0011 50.2492 62.9639 50.5881 63.0291C50.927 63.0944 51.2388 63.2592 51.484 63.5027C51.7292 63.7461 51.8967 64.0571 51.9651 64.3962C52.0336 64.7353 51.9998 65.0872 51.8683 65.407C51.7368 65.7269 51.5133 66.0002 51.2264 66.1924C50.9395 66.3846 50.602 66.4869 50.257 66.4864C49.7995 66.4858 49.3606 66.3045 49.0355 65.9818C48.7104 65.6591 48.5253 65.2209 48.5203 64.7622ZM51.4652 64.7582C51.4678 64.5185 51.3993 64.2834 51.2684 64.0828C51.1375 63.8822 50.9501 63.7252 50.73 63.6316C50.5099 63.5379 50.2669 63.512 50.0321 63.557C49.7972 63.6021 49.581 63.716 49.4109 63.8845C49.2408 64.053 49.1244 64.2684 49.0766 64.5032C49.0288 64.7381 49.0517 64.9819 49.1423 65.2037C49.233 65.4256 49.3873 65.6154 49.5858 65.7492C49.7842 65.8829 50.0179 65.9545 50.257 65.9548C50.5749 65.9551 50.8802 65.8295 51.1064 65.6055C51.3326 65.3815 51.4616 65.077 51.4652 64.7582Z" fill="#FF6600"/>
<path d="M27.996 31.3689L4 0V47.999H13.9943V29.6932L27.996 47.999L42.0017 29.6932L51.996 16.6321V0L27.996 31.3689Z" fill="white"/>
<path d="M39.8967 47.9991H52V31.7375L39.8967 47.9991Z" fill="#FF6600"/>
<path d="M55.125 2.25L54.6842 1.64981C54.8581 1.59398 54.984 1.42556 54.984 1.23201C54.984 0.96495 54.7528 0.75 54.4709 0.75H54L54.0009 2.25H54.2387V1.66935H54.4248L54.8327 2.25H55.125ZM54.2378 1.47395V0.983561H54.4765C54.6175 0.983561 54.7387 1.08685 54.7387 1.22643C54.7387 1.36042 54.6194 1.47488 54.4765 1.47395H54.2378Z" fill="white"/>
<path fill-rule="evenodd" clip-rule="evenodd" d="M54.5 3C55.3284 3 56 2.32843 56 1.5C56 0.671573 55.3284 0 54.5 0C53.6716 0 53 0.671573 53 1.5C53 2.32843 53.6716 3 54.5 3ZM54.5 2.75C55.1904 2.75 55.75 2.19036 55.75 1.5C55.75 0.809644 55.1904 0.25 54.5 0.25C53.8096 0.25 53.25 0.809644 53.25 1.5C53.25 2.19036 53.8096 2.75 54.5 2.75Z" fill="white"/>
</svg>
